<?xml version="1.0" standalone="no"?>
<!DOCTYPE svg PUBLIC "-//W3C//DTD SVG 20010904//EN"
 "http://www.w3.org/TR/2001/REC-SVG-20010904/DTD/svg10.dtd">
<svg version="1.0" xmlns="http://www.w3.org/2000/svg"
 width="300.000000pt" height="415.000000pt" viewBox="0 0 300.000000 415.000000"
 preserveAspectRatio="xMidYMid meet">
<g transform="translate(0.000000,415.000000) scale(0.100000,-0.100000)"
fill="#fff" stroke="none">
<path d="M165 4093 c-44 -23 -74 -53 -96 -95 -18 -36 -19 -77 -19 -1236 l0
-1199 23 -44 c13 -24 43 -57 66 -74 l43 -30 535 0 c499 0 537 1 547 18 8 12 8
22 0 35 -10 16 -50 17 -530 22 -564 5 -548 4 -584 63 -19 31 -20 61 -20 1208
l0 1176 23 34 c12 18 34 39 47 46 20 10 157 12 622 10 l598 -2 32 -33 33 -32
3 -537 c2 -383 6 -540 14 -550 6 -8 23 -13 37 -11 l26 3 3 548 c2 489 0 551
-14 580 -23 45 -53 76 -96 98 -35 18 -67 19 -650 19 -539 -1 -617 -3 -643 -17z"/>
<path d="M1809 3968 c-25 -20 -29 -43 -13 -67 15 -21 21 -21 334 -21 220 0
327 -4 344 -12 53 -23 55 -37 56 -295 l1 -238 -121 -3 c-67 -1 -120 -6 -118
-10 13 -31 272 -472 277 -472 7 1 264 447 269 467 3 10 -22 13 -102 13 l-106
0 0 240 c0 262 -4 287 -58 343 -59 62 -57 62 -417 65 -260 2 -333 0 -346 -10z
m714 -65 c37 -23 53 -49 64 -105 3 -17 1 -28 -6 -28 -6 0 -10 3 -9 8 4 14 -20
67 -42 91 -42 44 -78 51 -267 53 l-178 2 175 6 c202 6 212 5 263 -27z m67
-353 c0 -195 0 -199 24 -226 20 -24 32 -28 90 -32 40 -3 66 -9 66 -16 -1 -22
-186 -331 -200 -334 -9 -1 -29 22 -51 60 -19 35 -64 112 -98 171 -35 60 -60
111 -57 114 3 4 43 9 88 11 124 7 125 8 122 270 -1 114 1 190 7 186 5 -3 9
-94 9 -204z"/>
<path d="M624 3962 c-18 -12 -23 -39 -10 -57 10 -14 35 -16 196 -16 164 0 186
1 197 17 17 23 16 29 -3 48 -13 13 -45 16 -192 16 -97 0 -182 -4 -188 -8z"/>
<path d="M1550 2729 c-44 -18 -90 -59 -113 -102 l-22 -42 0 -1195 0 -1195 22
-40 c24 -46 55 -76 100 -99 28 -14 100 -16 645 -16 l613 0 40 23 c21 12 53 42
70 65 l30 44 0 1217 0 1218 -29 41 c-18 26 -47 51 -79 67 l-51 25 -600 -1
c-370 0 -610 -4 -626 -10z m1235 -83 c19 -8 44 -30 55 -48 20 -33 20 -47 20
-1208 0 -1148 -1 -1176 -20 -1207 -40 -66 -17 -64 -676 -61 l-596 3 -34 37
-34 38 0 1182 c0 1168 0 1183 20 1216 38 62 27 61 658 62 476 0 578 -2 607
-14z"/>
<path d="M1980 2605 c-10 -12 -10 -21 -2 -40 l12 -25 182 0 c101 0 189 4 196
9 8 5 12 21 10 37 l-3 29 -191 3 c-163 2 -193 0 -204 -13z"/>
<path d="M1762 281 c-8 -4 -12 -21 -10 -37 l3 -29 419 0 c388 0 420 1 430 18
8 12 8 22 0 35 -10 16 -43 17 -420 19 -225 2 -415 -1 -422 -6z"/>
<path d="M387 1653 c-11 -11 -8 -48 5 -61 9 -9 116 -12 419 -12 438 0 435 0
427 52 l-3 23 -421 3 c-231 1 -424 -1 -427 -5z"/>
<path d="M205 1088 c-65 -112 -126 -218 -137 -236 -26 -42 -18 -45 112 -40
l100 3 0 -225 c0 -132 5 -241 11 -265 15 -55 83 -119 142 -133 30 -8 154 -12
351 -12 293 0 307 1 326 20 25 25 25 42 2 63 -17 15 -55 17 -341 17 l-323 0
-34 34 -34 34 0 234 0 233 100 -3 c134 -5 138 -3 105 50 -14 24 -75 130 -136
236 -61 105 -115 192 -119 192 -5 0 -61 -91 -125 -202z m191 25 c123 -211 134
-230 134 -248 0 -12 -15 -15 -73 -15 -64 0 -76 -3 -96 -24 -22 -23 -22 -30
-23 -240 -1 -250 5 -274 75 -319 l41 -27 305 0 c167 0 302 -3 299 -6 -3 -3
-144 -5 -312 -5 -351 -1 -359 1 -402 80 -22 41 -23 53 -24 269 0 217 -1 227
-22 249 -19 20 -31 23 -94 23 -40 0 -75 4 -78 9 -3 4 32 73 77 152 97 169 117
199 127 199 5 0 34 -44 66 -97z"/>
</g>
</svg>
